<?xml version="1.0" standalone="no"?>
<!DOCTYPE svg PUBLIC "-//W3C//DTD SVG 20010904//EN"
 "http://www.w3.org/TR/2001/REC-SVG-20010904/DTD/svg10.dtd">
<svg version="1.0" xmlns="http://www.w3.org/2000/svg"
 width="1000.000000pt" height="1000.000000pt" viewBox="0 0 1000.000000 1000.000000"
 preserveAspectRatio="xMidYMid meet">
<metadata>
Created by potrace 1.11, written by Peter Selinger 2001-2013
</metadata>
<g transform="translate(0.000000,1000.000000) scale(0.100000,-0.100000)"
fill="#000000" stroke="none">
<path d="M0 5000 l0 -5000 5000 0 5000 0 0 5000 0 5000 -5000 0 -5000 0 0
-5000z m4335 2270 l0 -505 -292 -3 -293 -2 0 -570 0 -570 1248 0 1247 0 0 570
0 570 -287 0 -288 0 0 510 0 510 1193 -2 1192 -3 0 -505 0 -505 -292 -3 -293
-2 0 -1765 0 -1765 295 0 295 0 0 -505 0 -505 -1195 0 -1195 0 0 505 0 505
285 0 285 0 2 705 3 705 -1247 0 -1248 0 0 -705 0 -705 295 0 295 0 0 -505 0
-505 -1195 0 -1195 0 0 505 0 505 285 0 285 0 2 1765 3 1765 -287 0 -288 0 0
510 0 510 1193 -2 1192 -3 0 -505z"/>
</g>
</svg>
