<?xml version="1.0" standalone="no"?>
<!DOCTYPE svg PUBLIC "-//W3C//DTD SVG 20010904//EN"
 "http://www.w3.org/TR/2001/REC-SVG-20010904/DTD/svg10.dtd">
<svg version="1.0" xmlns="http://www.w3.org/2000/svg"
 width="100%" height="100%" viewBox="0 0 1586 255"
 preserveAspectRatio="xMidYMid meet"
 style="background-color:white">
<metadata>
Created by potrace 1.15, written by Peter Selinger 2001-2017
</metadata>
<g transform="translate(0.000000,256.000000) scale(0.100000,-0.100000)"
fill="#000000" stroke="none">
<path d="M0 1280 l0 -1280 7930 0 7930 0 0 1280 0 1280 -7930 0 -7930 0 0
-1280z m5027 689 c62 -23 99 -88 86 -151 -3 -17 -21 -46 -40 -64 -28 -29 -41
-34 -79 -34 -25 0 -58 7 -74 16 -95 57 -72 209 35 237 33 8 42 7 72 -4z m1523
-199 l0 -210 38 24 c57 37 108 49 182 44 114 -8 200 -71 231 -169 6 -19 13
-112 16 -206 l6 -173 48 0 49 0 0 -100 0 -100 -165 0 -165 0 0 208 c0 114 -5
224 -10 244 -20 71 -92 98 -163 62 -67 -34 -67 -34 -67 -181 l0 -133 50 0 50
0 0 -100 0 -100 -220 0 -220 0 0 100 0 100 55 0 55 0 0 350 0 350 -55 0 -55 0
0 100 0 100 170 0 170 0 0 -210z m-5210 149 c76 -36 124 -80 156 -145 35 -72
37 -186 4 -257 -20 -43 -70 -96 -116 -123 -18 -11 -18 -13 7 -40 33 -36 53
-76 69 -134 6 -25 16 -62 21 -82 9 -37 11 -38 54 -38 l45 0 0 -110 0 -110
-160 0 c-88 0 -160 3 -160 6 0 4 -12 74 -26 158 -37 218 -60 248 -195 255
l-79 3 0 -111 0 -111 50 0 50 0 0 -100 0 -100 -230 0 -231 0 3 98 3 97 53 3
52 3 0 334 0 334 -52 3 -53 3 -3 98 -3 98 343 -3 343 -3 55 -26z m2580 -69 l0
-100 -55 0 -55 0 0 -105 0 -105 235 0 235 0 0 105 0 105 -55 0 -55 0 0 100 0
100 230 0 230 0 0 -100 0 -100 -55 0 -55 0 0 -335 0 -335 55 0 55 0 0 -100 0
-100 -230 0 -230 0 0 100 0 100 55 0 55 0 0 130 0 130 -235 0 -235 0 0 -130 0
-130 55 0 55 0 0 -100 0 -100 -235 0 -235 0 0 100 0 100 55 0 55 0 0 335 0
335 -55 0 -55 0 0 100 0 100 235 0 235 0 0 -100z m3561 -98 l-3 -132 76 0 76
0 0 -100 0 -100 -75 0 -75 0 0 -168 c0 -192 6 -212 65 -212 18 0 45 4 58 9 24
10 26 8 43 -61 16 -69 16 -72 -2 -85 -10 -7 -41 -20 -68 -28 -152 -45 -284 20
-315 155 -6 25 -11 123 -11 218 l0 172 -50 0 -50 0 0 100 0 100 49 0 c57 0 61
7 61 108 l0 63 102 49 c56 28 107 49 112 47 7 -3 10 -49 7 -135z m2934 -113
c117 -21 202 -87 251 -193 22 -48 43 -155 44 -218 l0 -28 -271 0 -270 0 6 -22
c31 -108 166 -146 330 -94 l76 24 39 -79 40 -79 -67 -33 c-94 -47 -159 -61
-262 -54 -113 6 -186 34 -256 98 -95 87 -140 226 -117 360 28 163 135 281 285
314 78 17 100 18 172 4z m-4645 -11 c25 -6 104 -11 175 -12 l130 -1 0 -390 c0
-348 -2 -395 -18 -440 -41 -116 -128 -190 -259 -220 -84 -19 -136 -19 -232 -1
-71 14 -206 71 -206 87 0 6 77 148 86 158 2 2 32 -9 66 -24 84 -38 215 -46
267 -17 39 21 71 73 71 115 0 24 -2 26 -20 17 -39 -21 -120 -30 -186 -21 -134
19 -240 94 -297 210 -30 61 -32 73 -32 166 0 91 3 106 32 167 17 36 51 85 75
109 88 86 231 126 348 97z m2455 1 c108 -20 197 -79 253 -167 78 -123 82 -291
8 -416 -124 -212 -449 -248 -623 -69 -78 81 -107 165 -101 295 5 108 40 188
112 256 99 93 215 126 351 101z m4270 -19 c34 -16 76 -26 130 -29 l80 -6 0
-110 0 -110 -93 -3 c-89 -3 -95 -1 -125 24 -131 110 -307 37 -307 -128 0 -121
107 -210 214 -178 39 12 108 70 118 99 4 13 20 11 102 -12 54 -14 101 -28 103
-31 12 -12 -50 -117 -91 -154 -161 -148 -415 -146 -562 5 -170 174 -133 489
70 608 102 59 264 71 361 25z m755 20 c213 -40 347 -235 310 -447 -29 -171
-149 -289 -320 -316 -224 -34 -415 102 -451 322 -43 269 191 492 461 441z
m-11078 -29 c26 -13 63 -40 82 -61 53 -59 66 -117 66 -302 l0 -158 50 0 50 0
0 -100 0 -100 -160 0 c-137 0 -160 2 -160 15 0 13 -8 11 -42 -7 -62 -33 -191
-32 -266 1 -124 56 -174 187 -118 307 43 92 126 135 266 137 47 1 102 -2 123
-6 33 -7 37 -6 37 13 0 32 -17 58 -50 75 -42 22 -162 19 -230 -5 -30 -11 -60
-19 -65 -20 -14 0 -77 128 -70 141 10 16 106 61 170 81 87 26 251 20 317 -11z
m12157 13 c35 -10 66 -29 93 -56 l40 -40 26 24 c125 113 335 118 438 9 54 -57
66 -109 72 -298 l5 -173 48 0 49 0 0 -100 0 -100 -169 0 -169 0 -4 234 c-3
219 -4 236 -24 263 -11 15 -34 34 -49 42 -40 19 -109 0 -152 -42 l-33 -31 0
-133 0 -133 55 0 55 0 0 -100 0 -100 -170 0 -170 0 0 203 c0 111 -3 219 -7
240 -7 43 -49 91 -88 101 -36 9 -98 -10 -135 -40 l-30 -26 0 -139 0 -139 60 0
60 0 0 -100 0 -100 -235 0 -235 0 0 100 0 100 55 0 55 0 0 164 0 165 -52 3
-53 3 0 100 0 100 170 0 170 0 3 -28 c3 -23 6 -26 17 -17 8 7 40 23 72 36 69
28 155 31 232 8z m-11429 -99 c0 -104 0 -105 -24 -105 l-24 0 46 -120 c25 -67
48 -117 52 -113 6 6 42 97 86 216 5 13 1 17 -20 17 l-26 0 0 105 0 105 180 0
180 0 0 -105 0 -105 -39 0 c-22 0 -41 -6 -44 -12 -3 -7 -64 -154 -136 -327
-72 -172 -131 -315 -131 -317 0 -2 27 -4 60 -4 l60 0 0 -100 0 -100 -230 0
-230 0 0 100 0 100 63 0 64 0 23 69 24 69 -110 258 -110 259 -37 3 -37 3 0
105 0 104 180 0 180 0 0 -105z m2198 -167 l2 -268 50 0 50 0 0 -100 0 -100
-220 0 -220 0 0 100 0 100 55 0 55 0 0 165 0 165 -55 0 -55 0 0 105 0 105 168
-2 167 -3 3 -267z m3900 170 l-3 -103 -36 -5 -36 -5 33 -110 c23 -78 35 -104
39 -90 4 11 37 108 74 215 l66 195 107 3 106 3 57 -178 c31 -98 64 -203 74
-233 l18 -55 41 125 41 125 -35 3 -34 3 0 105 0 104 193 -2 192 -3 0 -100 0
-100 -50 -5 -50 -5 -96 -265 -96 -265 -109 0 -109 0 -74 225 -74 225 -76 -225
-76 -225 -99 -3 c-62 -2 -103 1 -110 8 -6 6 -50 127 -97 268 l-86 257 -41 3
-42 3 0 105 0 104 195 0 196 0 -3 -102z m2139 82 c6 -24 6 -24 46 -3 25 13 60
17 162 17 l130 1 3 -137 3 -138 -106 0 -105 0 0 39 0 38 -37 -7 c-49 -8 -80
-29 -87 -55 -3 -11 -6 -77 -6 -147 l0 -128 75 0 75 0 0 -100 0 -100 -245 0
-245 0 0 100 0 100 55 0 55 0 0 164 0 165 -52 3 -53 3 -3 89 c-2 49 -1 95 2
103 4 10 42 13 167 13 152 0 161 -1 166 -20z m641 -474 c50 -26 75 -62 80
-115 8 -85 -50 -152 -132 -153 -83 -2 -146 58 -146 138 0 100 113 174 198 130z"/>
<path d="M960 1624 l0 -127 104 5 c79 4 111 9 137 24 92 54 74 181 -29 212
-22 7 -78 12 -126 12 l-86 0 0 -126z"/>
<path d="M10252 1443 c-19 -10 -43 -33 -54 -50 l-20 -33 146 0 147 0 -15 28
c-25 49 -53 66 -114 69 -41 3 -66 -1 -90 -14z"/>
<path d="M5640 1419 c-63 -25 -103 -89 -103 -164 0 -133 126 -215 241 -156 60
31 69 47 76 144 6 80 4 91 -15 118 -41 57 -133 84 -199 58z"/>
<path d="M8074 1416 c-114 -51 -127 -243 -23 -317 48 -34 126 -38 177 -9 107
60 118 242 19 312 -38 27 -128 35 -173 14z"/>
<path d="M13090 1408 c-72 -49 -98 -123 -75 -210 37 -144 209 -176 299 -55 17
23 21 43 21 107 0 64 -4 84 -21 107 -37 49 -82 73 -139 73 -38 0 -61 -6 -85
-22z"/>
<path d="M1880 1148 c-26 -29 -25 -59 3 -86 31 -29 102 -29 168 -1 48 21 49
22 49 65 l0 44 -100 0 c-89 0 -101 -2 -120 -22z"/>
</g>
</svg>
