<svg id="Layer_1" data-name="Layer 1" xmlns="http://www.w3.org/2000/svg" viewBox="0 0 467.97 83.75"><defs><style>.cls-1{fill:#55b9e4;}.cls-2{fill:#fff;}.cls-3{fill:#d23827;}.cls-4{fill:#ebbe1d;}.cls-5{fill:#231f20;}</style></defs><title>rubycaribe</title><polygon class="cls-1" points="2.43 21.19 41.37 60.13 41.37 40.66 60.84 40.66 21.9 1.72 2.43 21.19"/><polygon class="cls-2" points="21.9 1.72 60.84 40.66 80.31 21.19 60.84 1.72 21.9 1.72"/><polygon class="cls-3" points="60.84 1.72 99.78 1.72 119.25 21.19 80.31 60.13 80.31 21.19 60.84 1.72"/><polygon class="cls-4" points="60.84 40.66 60.84 79.6 80.31 60.13 80.31 21.19 60.84 40.66"/><path class="cls-5" d="M59.12,83.75l62.56-62.56L100.49,0H21.19L0,21.19,43.09,64.28V42.38h16V83.75Zm3.44-8.3V41.37l16-16V59.42Zm36.51-72,17.75,17.75L82,56V20.48l-17-17H99.07ZM39.65,56L4.86,21.19l17-17,17,17L29.2,30.92,39.65,41.37V56Zm2.43-17-8-8,7.3-7.3L56.69,38.94H42.08Zm-16-35.5H60.13L77.88,21.19l-17,17Z"/><circle class="cls-5" cx="55.97" cy="16.32" r="3.63"/><path class="cls-5" d="M150.92,52.17h5.26V24.9h-5.26V19h18.86c11.55,0,15.91,6.35,15.91,12.32,0,4.56-2.57,8.73-7.89,10.46l5.9,10.39h4.81v5.9h-9.88l-8-14.31h-7v8.41h5.26v5.9h-18v-5.9Zm19-14.18c6.22,0,8.28-3.14,8.28-6.54s-2.12-6.54-8.28-6.54h-6.29V38h6.29Z"/><path class="cls-5" d="M195.06,50.18V36h-4.3V30.35h11.55V49.47c0,2.31.83,3.59,3.4,3.59,2.76,0,5.52-1.48,7.7-3.14V36H208.6V30.35h12.06V52.42h4.23v5.65H213.61v-3.4a16.3,16.3,0,0,1-10.27,4.11C198.27,58.78,195.06,55.89,195.06,50.18Z"/><path class="cls-5" d="M230.16,57.75V18.35h-4.23V12.71h11.49V31.57a14.87,14.87,0,0,1,7.44-1.93c7.83,0,12.32,5.33,12.32,14,0,10.27-6.35,15.14-16.87,15.14A56.79,56.79,0,0,1,230.16,57.75ZM249.79,43.7c0-4.56-1.67-8.66-6.74-8.66a12,12,0,0,0-5.65,1.54V53.19c0.77,0.06,1.67.13,2.57,0.13C246.58,53.32,249.79,50,249.79,43.7Z"/><path class="cls-5" d="M261.85,69.43l2.05-4.81A9.59,9.59,0,0,0,268.59,66a4.08,4.08,0,0,0,4.3-3.21l1.48-4.75H269l-6.42-22.14h-3.27V30.35h14.44V36h-3.72L275.2,55.5,281.49,36H277.7V30.35h14v5.58h-3.14l-9.3,27.78c-1.67,5-4.49,7.83-9.62,7.83A15.5,15.5,0,0,1,261.85,69.43Z"/><path class="cls-5" d="M295.19,38.76c0-13,8.66-20.53,20.85-20.53a37.31,37.31,0,0,1,14.56,3.14V32.6h-7.12V25.41a28.86,28.86,0,0,0-7.06-1c-8,0-13.54,4.94-13.54,13.92,0,9.24,5.9,14.05,14,14.05a27.5,27.5,0,0,0,13.67-4.11v7.12a31.33,31.33,0,0,1-14.31,3.4C303.4,58.84,295.19,51.33,295.19,38.76Z"/><path class="cls-5" d="M334.39,50.31c0-6.67,5.71-8.6,12.9-8.6h4.55V40c0-3.34-1.35-4.81-6-4.81a35,35,0,0,0-9.18,1.41V31.19a40,40,0,0,1,10.71-1.54c7.44,0,11.68,2.63,11.68,10.2V52.42h4.11v5.65h-11V54.93a11.92,11.92,0,0,1-8.79,3.85C338.24,58.78,334.39,55.76,334.39,50.31Zm17.45,0.32V46.2h-4.23c-3.79,0-6,1-6,3.79,0,1.73.83,3.66,4,3.66A8.66,8.66,0,0,0,351.84,50.63Z"/><path class="cls-5" d="M365.89,52.42h4.23V36h-4.23V30.35h11.23v5.07a10.14,10.14,0,0,1,9.18-5.78h0.58V37h-1.15c-4.11,0-6.8.83-8.34,1.8V52.42h4.81v5.65h-16.3V52.42Z"/><path class="cls-5" d="M389.89,52.42h4.23V36h-4.23V30.35h11.48V52.42h4.23v5.65H389.89V52.42Zm7.51-36.06a5,5,0,1,1-5,5A5,5,0,0,1,397.39,16.36Z"/><path class="cls-5" d="M410.87,57.75V18.35h-4.24V12.71h11.49V31.57a14.87,14.87,0,0,1,7.44-1.93c7.83,0,12.32,5.33,12.32,14,0,10.27-6.35,15.14-16.87,15.14A56.76,56.76,0,0,1,410.87,57.75ZM430.5,43.7c0-4.56-1.67-8.66-6.74-8.66a12,12,0,0,0-5.65,1.54V53.19c0.77,0.06,1.67.13,2.57,0.13C427.29,53.32,430.5,50,430.5,43.7Z"/><path class="cls-5" d="M441.66,44.21c0-8.41,4.81-14.57,13.6-14.57S468,35.81,468,43.44a17,17,0,0,1-.26,3.08H449c0.71,4.36,3.34,6.74,8.34,6.74a18.6,18.6,0,0,0,8.92-2.57v5.58a20.3,20.3,0,0,1-10,2.5C446.47,58.78,441.66,52.62,441.66,44.21Zm7.25-2.76h12.25c-0.26-3.27-1.54-6.54-5.77-6.54S449.43,38,448.91,41.45Z"/></svg>