<svg id="Layer_1" data-name="Layer 1" xmlns="http://www.w3.org/2000/svg" viewBox="0 0 215.27 47.22"><defs><style>.cls-1{fill:#010101;}.cls-2{fill:#fff;}.cls-3{fill:#b21f24;}.cls-4{fill:#b30000;}</style></defs><title>wcr-logo-eps-rgb</title><path class="cls-1" d="M68.94,8.8H65.29V5.15h3.64V8.8Zm0,31.58H65.29V12.15h3.64V40.38Z"/><path class="cls-1" d="M72.58,12.15h7.29a3.64,3.64,0,0,1,3.65,3.64V40.32H79.87V15.79H76.23V40.32H72.58V12.15Z"/><path class="cls-1" d="M98.1,40.32H90.81a3.64,3.64,0,0,1-3.65-3.64V15.79a3.64,3.64,0,0,1,3.65-3.64h3.65v-7H98.1V40.32Zm-7.29-3.64h3.65V15.79H90.81V36.68Z"/><path class="cls-1" d="M112.69,47.22H109v-6.9H105.4a3.64,3.64,0,0,1-3.65-3.64V12.15h3.65V36.68H109V12.15h3.65V47.22Z"/><path class="cls-1" d="M116.34,10.32a5.47,5.47,0,1,1,10.94,0v4h-3.65V8.8H120V36.68h3.65V31.16h3.65v4a5.47,5.47,0,0,1-10.94,0V10.32Z"/><path class="cls-1" d="M133.68,8.8H130V5.15h3.65V8.8Zm0,31.58H130V12.15h3.65V40.38Z"/><polygon class="cls-1" points="144.62 15.79 140.97 15.79 140.97 40.38 137.32 40.38 137.32 5.15 140.97 5.15 140.97 12.14 144.62 12.14 144.62 15.79"/><path class="cls-1" d="M157.37,47.22h-3.64v-6.9h-3.65a3.64,3.64,0,0,1-3.65-3.64V12.15h3.65V36.68h3.65V12.15h3.64V47.22Z"/><path class="cls-1" d="M161,5.15h7.29A3.64,3.64,0,0,1,172,8.8V19.93a2.8,2.8,0,0,1-1.63,2.81C171.22,23.08,172,23.82,172,26V37.71a5.18,5.18,0,0,0,.89,2.61H169.1a6,6,0,0,1-.79-2.61V24.56h-3.65V40.32H161V5.15Zm3.64,15.76h3.65V8.8h-3.65V20.91Z"/><path class="cls-1" d="M186.54,40.32h-7.29a3.64,3.64,0,0,1-3.65-3.64V23.23a3.64,3.64,0,0,1,3.65-3.65h3.65V15.79h-6.5V12.15h6.5a3.64,3.64,0,0,1,3.64,3.64V40.32Zm-7.29-3.64h3.65V23.23h-3.65V36.68Z"/><path class="cls-1" d="M193.83,8.8h-3.64V5.15h3.64V8.8Zm0,31.58h-3.64V12.15h3.64V40.38Z"/><polygon class="cls-1" points="197.48 7.13 197.48 4.86 201.13 8.5 201.13 40.32 197.48 40.32 197.48 7.13"/><path class="cls-1" d="M211.62,15.79H208v8.62h3.64a3.64,3.64,0,0,1,3.65,3.64v7.09a5.47,5.47,0,0,1-10.94,0V33H208v3.65h3.64V28.06H208a3.64,3.64,0,0,1-3.65-3.64v-7.1a5.47,5.47,0,0,1,10.94,0v2.12h-3.65V15.79Z"/><path class="cls-1" d="M46.93,5.18h3.69c0,6.31.2,12.66,0.2,19,0,2.27-.1,4.53-0.1,6.8h0.1c0.64-5.81,1.58-9.7,2.17-13.69H56c0.59,4,1.53,7.88,2.17,13.69h0.1c0-2.27-.1-4.53-0.1-6.8,0-6.31.15-12.66,0.2-19h3.7L60.92,40.35h-3.4c-1-5.27-2.41-10.49-3-18h-0.1c-0.54,7.54-1.92,12.76-3,18h-3.4Z"/><path class="cls-2" d="M38.24,43.5a3,3,0,0,1-3,3H0V3A3,3,0,0,1,3,0H38.24V43.5Z"/><polygon class="cls-3" points="19.43 33.47 24.08 32.09 20.58 35.45 24.1 38.79 19.44 37.44 18.31 42.15 17.15 37.45 12.5 38.82 15.99 35.47 12.48 32.13 17.14 33.48 18.27 28.76 19.43 33.47"/><polygon class="cls-3" points="18.68 18.56 22.2 17.52 19.56 20.06 22.22 22.59 18.69 21.57 17.84 25.13 16.96 21.57 13.44 22.61 16.08 20.07 13.42 17.54 16.95 18.56 17.81 14.99 18.68 18.56"/><polygon class="cls-3" points="22.69 9.95 24.6 9.39 23.16 10.77 24.61 12.13 22.7 11.58 22.23 13.51 21.76 11.58 19.85 12.15 21.28 10.77 19.84 9.4 21.75 9.96 22.22 8.02 22.69 9.95"/><polygon class="cls-3" points="29.03 5.21 30.32 4.83 29.35 5.76 30.33 6.7 29.03 6.32 28.72 7.63 28.39 6.32 27.1 6.71 28.07 5.77 27.09 4.84 28.39 5.21 28.71 3.9 29.03 5.21"/><path class="cls-4" d="M30.8,0H26.59C16.62,2.25,1,10.19,2.13,37.92L2.57,46.5H7.2C2.31,10.1,20,1.76,30.8,0Zm7.44,27.38V8.81C31.66,13.19,34.37,21.08,38.24,27.38Zm-3,19.12h0a3,3,0,0,0,3-3V41.37c-16.42-28.16-3.11-33.83,0-34.73V5C15.67,13.4,32.71,42.45,35.22,46.5ZM18.69,0H3A3,3,0,0,0,0,3V14.8A34.89,34.89,0,0,1,18.69,0Z"/></svg>