<svg id="Layer_1" data-name="Layer 1" xmlns="http://www.w3.org/2000/svg" viewBox="0 0 369.36 79.55"><defs><style>.cls-1,.cls-4{fill:#00467f;}.cls-1,.cls-2{fill-rule:evenodd;}.cls-2,.cls-3{fill:#7e929e;}</style></defs><title>wisdomgroup_whitebg_rgb</title><path class="cls-1" d="M78.6,31.11a39.77,39.77,0,0,1,.94,8,68.48,68.48,0,0,0-17.31-2.21c-22.56,0-42.4,10.86-53.85,27.29l0,0A66.78,66.78,0,0,1,40.77,35.49,67.09,67.09,0,0,1,78.6,31.11Z"/><path class="cls-2" d="M8.48,64.32a66.75,66.75,0,0,1,41-13.84,67.8,67.8,0,0,1,26.64,5.39A39.78,39.78,0,0,1,8.48,64.32Z"/><path class="cls-1" d="M69,12.83a68.16,68.16,0,0,0-21.81,5.23C26.48,26.8,12.43,44.46,8.23,64l-0.06-.07A66.76,66.76,0,0,1,26.73,25,68.67,68.67,0,0,1,39.11,14.88H18.87a64.7,64.7,0,0,0-11,48.67A39.77,39.77,0,0,1,69,12.83Z"/><path class="cls-3" d="M360.42,49.56a6.14,6.14,0,0,0,3.38-.84,5.62,5.62,0,0,0,2-2.2,9.37,9.37,0,0,0,.91-3.09,28.16,28.16,0,0,0,.22-3.55,26.06,26.06,0,0,0-.24-3.52,9.41,9.41,0,0,0-1-3.12,5.83,5.83,0,0,0-2-2.21,6.07,6.07,0,0,0-3.29-.84V28.08a7.9,7.9,0,0,1,6.67,3q2.28,3,2.28,8.75t-2.23,8.77a7.44,7.44,0,0,1-6.4,3.07h-0.31V49.56ZM360.3,30.19a6.34,6.34,0,0,0-3.52.84,5.32,5.32,0,0,0-1.92,2.21,8.91,8.91,0,0,0-.79,3.12q-0.14,1.75-.15,3.52a28.13,28.13,0,0,0,.22,3.55,9.26,9.26,0,0,0,.91,3.09,5.67,5.67,0,0,0,2,2.2,6,6,0,0,0,3.38.84h0v2.15a10.83,10.83,0,0,1-3.57-.62,6,6,0,0,1-2.93-2.64V59.24h-2.45V39.87q0-5.66,2.11-8.73t6.71-3.07h0.12v2.11H360.3ZM312.23,51.71V49.56h0a5.74,5.74,0,0,0,5.18-2.49q1.63-2.49,1.63-7.19t-1.63-7.19a5.74,5.74,0,0,0-5.18-2.49h0V28.08h0q4.65,0,7,3t2.3,8.75q0,5.71-2.3,8.77t-7,3.07h0Zm24.1,0a9.66,9.66,0,0,1-3.53-.62,7.74,7.74,0,0,1-4.53-4.53,9.84,9.84,0,0,1-.62-3.57V28.32h2.45V42.65a7.18,7.18,0,0,0,1.68,5.13,6.67,6.67,0,0,0,9.06,0,7.19,7.19,0,0,0,1.68-5.13V28.32H345V43a9,9,0,0,1-2.21,6.33Q340.55,51.71,336.33,51.71Zm-24.1-23.64v2.11a5.79,5.79,0,0,0-5.18,2.49q-1.65,2.5-1.65,7.19t1.65,7.19a5.79,5.79,0,0,0,5.18,2.49v2.16q-4.63,0-7-3.07T303,39.87q0-5.71,2.33-8.75t7-3h0Zm-12.87,2.73a6.74,6.74,0,0,0-2.88-.62A6,6,0,0,0,291.93,32a7.19,7.19,0,0,0-1.68,5.13V51.43H287.8V36.75A8.83,8.83,0,0,1,290,30.45a8.43,8.43,0,0,1,6.45-2.37,9.56,9.56,0,0,1,3.79.72l-0.91,2h0Zm-20.19,6.91a2.43,2.43,0,0,1,2,.84,3.33,3.33,0,0,1,.67,2.13v6a5.86,5.86,0,0,1-.41,2.49,3.32,3.32,0,0,1-1.8,1.39,13.31,13.31,0,0,1-2.85.81,18.5,18.5,0,0,1-3.28.29q-6,0-9.11-3.55T261.33,36.8q0-7.67,3.07-11.08t9.11-3.4a12.15,12.15,0,0,1,4.68.86A15.89,15.89,0,0,1,281.57,25l-1,2.11a10.89,10.89,0,0,0-2.85-1.8,9.79,9.79,0,0,0-4.2-.89q-4.84,0-7.29,2.9t-2.45,9.47q0,6.71,2.45,9.73t7.29,3a16.27,16.27,0,0,0,2.76-.24,10.19,10.19,0,0,0,2.42-.72,1.26,1.26,0,0,0,.58-0.43,1.58,1.58,0,0,0,.14-0.77V40.59a0.64,0.64,0,0,0-.72-0.72h-6V37.71h6.52Z"/><path class="cls-4" d="M245.13,28.08a10.49,10.49,0,0,1,3.76.65,8.52,8.52,0,0,1,2.92,1.82,8,8,0,0,1,1.89,2.83,9.65,9.65,0,0,1,.67,3.67V51.43h-5.13v-14a5.71,5.71,0,0,0-1.13-3.81,4.07,4.07,0,0,0-6,0A5.73,5.73,0,0,0,241,37.38v14h-5.18v-14a5.7,5.7,0,0,0-1.13-3.81,3.79,3.79,0,0,0-3-1.32,3.74,3.74,0,0,0-3,1.32,5.7,5.7,0,0,0-1.13,3.81v14H222.4V37a8.93,8.93,0,0,1,2.4-6.5q2.4-2.47,6.86-2.47a7.87,7.87,0,0,1,3.93,1.05,6.16,6.16,0,0,1,2.73,3.26A5.85,5.85,0,0,1,241,29.11a8.4,8.4,0,0,1,4.12-1h0Zm-37.4,23.59V47.49h0a3.77,3.77,0,0,0,3.55-2,11.78,11.78,0,0,0,1.1-5.66,11.79,11.79,0,0,0-1.1-5.66,3.77,3.77,0,0,0-3.55-2h0V28.08h0q4.94,0,7.38,3t2.45,8.75q0,5.71-2.45,8.75t-7.38,3h0Zm0-23.59v4.17a3.86,3.86,0,0,0-3.55,2A11.35,11.35,0,0,0,203,39.87a11.33,11.33,0,0,0,1.15,5.66,3.85,3.85,0,0,0,3.55,2v4.17q-4.9,0-7.36-3t-2.47-8.75q0-5.71,2.47-8.75t7.36-3h0ZM183.56,51.66V47.49h0.1a3.57,3.57,0,0,0,3.69-2.37,8.08,8.08,0,0,0,.53-2.45c0.06-.91.09-1.85,0.09-2.81a27.43,27.43,0,0,0-.14-2.81,8,8,0,0,0-.63-2.45,4.26,4.26,0,0,0-1.34-1.73,3.75,3.75,0,0,0-2.3-.65V28.08a6.6,6.6,0,0,1,2.23.5A7.53,7.53,0,0,1,188,29.94V20.31h5.18V39.87q0,5.71-2.28,8.75t-7.22,3h-0.1Zm0-23.58v4.16a3.75,3.75,0,0,0-2.3.65,4.27,4.27,0,0,0-1.34,1.73,8.13,8.13,0,0,0-.62,2.45,27,27,0,0,0-.14,2.81,22.94,22.94,0,0,0,.17,2.81,8.54,8.54,0,0,0,.65,2.45,4.2,4.2,0,0,0,1.37,1.73,3.79,3.79,0,0,0,2.23.65v4.17q-4.72,0-7.12-3T174,39.87q0-5.71,2.37-8.75a8.2,8.2,0,0,1,6.88-3h0.29Zm-20.91,9.73a17.91,17.91,0,0,1,2.95.5,6.64,6.64,0,0,1,2.35,1.1,5.22,5.22,0,0,1,1.56,1.94,7,7,0,0,1,.58,3,6.26,6.26,0,0,1-2.66,5.35,11.93,11.93,0,0,1-7.17,1.94,14.83,14.83,0,0,1-9.35-3.16l2-4.07a14.16,14.16,0,0,0,3.67,2.33,9.4,9.4,0,0,0,3.62.74q4.8,0,4.8-3.12,0-2.21-2.64-2.4l-3.4-.29q-7.63-.62-7.63-6.57A6.19,6.19,0,0,1,153.72,30a10.34,10.34,0,0,1,6.54-1.89,14.23,14.23,0,0,1,4.15.65,18.26,18.26,0,0,1,4,1.75l-1.68,3.74a11.81,11.81,0,0,0-3.43-1.58,12.12,12.12,0,0,0-3-.43q-3.83,0-3.84,2.92,0,2.06,2.88,2.35l3.35,0.33h0ZM143.53,26.4a3.07,3.07,0,0,1-3-3,3,3,0,0,1,.89-2.18,2.86,2.86,0,0,1,2.09-.89,3,3,0,0,1,2.13,5.13,2.82,2.82,0,0,1-2.08.91h0ZM146,51.81a6,6,0,0,1-4-2.28A7.94,7.94,0,0,1,140.89,45V28.32h5.18V45.38a2.89,2.89,0,0,0,.38,1.54,3.19,3.19,0,0,0,1.34,1.1L146,51.81h0ZM134.08,41.6a9.78,9.78,0,0,1-2.8,7.45q-2.81,2.66-8.08,2.66a13.8,13.8,0,0,1-2.44-.22,9.86,9.86,0,0,1-2.25-.67,7.37,7.37,0,0,1-1.92-1.2,5.14,5.14,0,0,1-1.34-1.8,5.72,5.72,0,0,1-3.24,3,13.68,13.68,0,0,1-5,.86,13.37,13.37,0,0,1-4.43-.7,9.52,9.52,0,0,1-3.38-2,8.86,8.86,0,0,1-2.16-3.16,11.16,11.16,0,0,1-.77-4.27V22.23h5.32V41.31A6.41,6.41,0,0,0,103,45.87a5.27,5.27,0,0,0,4,1.48,5.46,5.46,0,0,0,4-1.48,6.15,6.15,0,0,0,1.51-4.56V22.23h5.32V41.31a6.4,6.4,0,0,0,1.41,4.56,5.13,5.13,0,0,0,3.91,1.48,5.51,5.51,0,0,0,4.08-1.48,6.21,6.21,0,0,0,1.49-4.56V22.23h5.32V41.6Z"/></svg>